STARTFONT 2.1
FONT --Iris-Medium-R-Normal--13-130-72-72-M-90-ISO8859-1
SIZE 13 72 72
FONTBOUNDINGBOX 9 13 0 -2

STARTPROPERTIES 25
_DEC_DEVICE_FONTNAMES "FM=Iris"
FONTNAME_REGISTRY ""
FAMILY_NAME "Iris"
FOUNDRY ""
WEIGHT_NAME "Medium"
SLANT "R"
SETWIDTH_NAME "Normal"
ADD_STYLE_NAME ""
PIXEL_SIZE 13
POINT_SIZE 130
RESOLUTION_X 72
RESOLUTION_Y 72
SPACING "M"
AVERAGE_WIDTH 90
CHARSET_REGISTRY "ISO8859"
CHARSET_ENCODING "1"
CHARSET_COLLECTIONS "ASCII ISO8859-1"
FULL_NAME "Iris"
CAP_HEIGHT 11
X_HEIGHT 7
WEIGHT 10
QUAD_WIDTH 9
DEFAULT_CHAR 0
FONT_DESCENT 2
FONT_ASCENT 11
ENDPROPERTIES

CHARS 190

STARTCHAR space
ENCODING 32
SWIDTH 694 0
DWIDTH 9 0
BBX 9 13 0 -2
BITMAP
0000
0000
0000
0000
0000
0000
0000
0000
0000
0000
0000
0000
0000
ENDCHAR

STARTCHAR exclam
ENCODING 33
SWIDTH 694 0
DWIDTH 9 0
BBX 9 13 0 -2
BITMAP
1800
1800
1800
1800
1800
1800
1800
0000
0000
1800
1800
0000
0000
ENDCHAR

STARTCHAR quotedbl
ENCODING 34
SWIDTH 694 0
DWIDTH 9 0
BBX 9 13 0 -2
BITMAP
3600
3600
3600
3600
0000
0000
0000
0000
0000
0000
0000
0000
0000
ENDCHAR

STARTCHAR numbersign
ENCODING 35
SWIDTH 694 0
DWIDTH 9 0
BBX 9 13 0 -2
BITMAP
0000
0000
6600
6600
FF00
6600
6600
FF00
6600
6600
0000
0000
0000
ENDCHAR

STARTCHAR dollar
ENCODING 36
SWIDTH 694 0
DWIDTH 9 0
BBX 9 13 0 -2
BITMAP
1800
7E00
FF00
D800
F800
7E00
1F00
1B00
FF00
7E00
1800
0000
0000
ENDCHAR

STARTCHAR percent
ENCODING 37
SWIDTH 694 0
DWIDTH 9 0
BBX 9 13 0 -2
BITMAP
7000
D800
DB00
7600
0C00
1800
3000
6E00
DB00
1B00
0E00
0000
0000
ENDCHAR

STARTCHAR ampersand
ENCODING 38
SWIDTH 694 0
DWIDTH 9 0
BBX 9 13 0 -2
BITMAP
3800
6C00
CC00
CC00
D800
7000
7000
D800
CF00
C600
7F00
0000
0000
ENDCHAR

STARTCHAR quoteright
ENCODING 39
SWIDTH 694 0
DWIDTH 9 0
BBX 9 13 0 -2
BITMAP
0E00
0C00
1C00
1800
0000
0000
0000
0000
0000
0000
0000
0000
0000
ENDCHAR

STARTCHAR parenleft
ENCODING 40
SWIDTH 694 0
DWIDTH 9 0
BBX 9 13 0 -2
BITMAP
0C00
1800
3000
3000
3000
3000
3000
3000
3000
1800
0C00
0000
0000
ENDCHAR

STARTCHAR parenright
ENCODING 41
SWIDTH 694 0
DWIDTH 9 0
BBX 9 13 0 -2
BITMAP
3000
1800
0C00
0C00
0C00
0C00
0C00
0C00
0C00
1800
3000
0000
0000
ENDCHAR

STARTCHAR asterisk
ENCODING 42
SWIDTH 694 0
DWIDTH 9 0
BBX 9 13 0 -2
BITMAP
0000
0000
9900
5A00
3C00
FF00
3C00
5A00
9900
0000
0000
0000
0000
ENDCHAR

STARTCHAR plus
ENCODING 43
SWIDTH 694 0
DWIDTH 9 0
BBX 9 13 0 -2
BITMAP
0000
0000
1800
1800
1800
FF00
FF00
1800
1800
1800
0000
0000
0000
ENDCHAR

STARTCHAR comma
ENCODING 44
SWIDTH 694 0
DWIDTH 9 0
BBX 9 13 0 -2
BITMAP
0000
0000
0000
0000
0000
0000
0000
1C00
1C00
1800
3000
0000
0000
ENDCHAR

STARTCHAR minus
ENCODING 45
SWIDTH 694 0
DWIDTH 9 0
BBX 9 13 0 -2
BITMAP
0000
0000
0000
0000
0000
FF00
FF00
0000
0000
0000
0000
0000
0000
ENDCHAR

STARTCHAR period
ENCODING 46
SWIDTH 694 0
DWIDTH 9 0
BBX 9 13 0 -2
BITMAP
0000
0000
0000
0000
0000
0000
0000
0000
3800
3800
0000
0000
0000
ENDCHAR

STARTCHAR slash
ENCODING 47
SWIDTH 694 0
DWIDTH 9 0
BBX 9 13 0 -2
BITMAP
0300
0300
0600
0600
0C00
0C00
1800
1800
3000
3000
6000
6000
0000
ENDCHAR

STARTCHAR zero
ENCODING 48
SWIDTH 694 0
DWIDTH 9 0
BBX 9 13 0 -2
BITMAP
3C00
6600
C300
C700
CF00
DB00
F300
E300
C300
6600
3C00
0000
0000
ENDCHAR

STARTCHAR one
ENCODING 49
SWIDTH 694 0
DWIDTH 9 0
BBX 9 13 0 -2
BITMAP
1800
3800
7800
1800
1800
1800
1800
1800
1800
1800
7E00
0000
0000
ENDCHAR

STARTCHAR two
ENCODING 50
SWIDTH 694 0
DWIDTH 9 0
BBX 9 13 0 -2
BITMAP
7E00
E700
0300
0600
0C00
1800
3000
6000
C000
C000
FF00
0000
0000
ENDCHAR

STARTCHAR three
ENCODING 51
SWIDTH 694 0
DWIDTH 9 0
BBX 9 13 0 -2
BITMAP
7E00
E700
0300
0300
0700
7E00
0700
0300
0300
E700
7E00
0000
0000
ENDCHAR

STARTCHAR four
ENCODING 52
SWIDTH 694 0
DWIDTH 9 0
BBX 9 13 0 -2
BITMAP
0C00
1C00
3C00
6C00
CC00
FF00
0C00
0C00
0C00
0C00
0C00
0000
0000
ENDCHAR

STARTCHAR five
ENCODING 53
SWIDTH 694 0
DWIDTH 9 0
BBX 9 13 0 -2
BITMAP
FF00
C000
C000
C000
C000
FE00
0700
0300
0300
E700
7E00
0000
0000
ENDCHAR

STARTCHAR six
ENCODING 54
SWIDTH 694 0
DWIDTH 9 0
BBX 9 13 0 -2
BITMAP
7E00
E700
C000
C000
C000
FE00
C700
C300
C300
E700
7E00
0000
0000
ENDCHAR

STARTCHAR seven
ENCODING 55
SWIDTH 694 0
DWIDTH 9 0
BBX 9 13 0 -2
BITMAP
FF00
0300
0300
0300
0600
0C00
1800
3000
3000
3000
3000
0000
0000
ENDCHAR

STARTCHAR eight
ENCODING 56
SWIDTH 694 0
DWIDTH 9 0
BBX 9 13 0 -2
BITMAP
7E00
E700
C300
C300
E700
7E00
E700
C300
C300
E700
7E00
0000
0000
ENDCHAR

STARTCHAR nine
ENCODING 57
SWIDTH 694 0
DWIDTH 9 0
BBX 9 13 0 -2
BITMAP
7E00
E700
C300
C300
E700
7F00
0300
0300
0300
E700
7E00
0000
0000
ENDCHAR

STARTCHAR colon
ENCODING 58
SWIDTH 694 0
DWIDTH 9 0
BBX 9 13 0 -2
BITMAP
0000
0000
0000
0000
3800
3800
0000
0000
3800
3800
0000
0000
0000
ENDCHAR

STARTCHAR semicolon
ENCODING 59
SWIDTH 694 0
DWIDTH 9 0
BBX 9 13 0 -2
BITMAP
0000
0000
0000
1C00
1C00
0000
0000
1C00
1C00
1800
3000
0000
0000
ENDCHAR

STARTCHAR less
ENCODING 60
SWIDTH 694 0
DWIDTH 9 0
BBX 9 13 0 -2
BITMAP
0600
0C00
1800
3000
6000
C000
6000
3000
1800
0C00
0600
0000
0000
ENDCHAR

STARTCHAR equal
ENCODING 61
SWIDTH 694 0
DWIDTH 9 0
BBX 9 13 0 -2
BITMAP
0000
0000
0000
0000
FF00
FF00
0000
FF00
FF00
0000
0000
0000
0000
ENDCHAR

STARTCHAR greater
ENCODING 62
SWIDTH 694 0
DWIDTH 9 0
BBX 9 13 0 -2
BITMAP
6000
3000
1800
0C00
0600
0300
0600
0C00
1800
3000
6000
0000
0000
ENDCHAR

STARTCHAR question
ENCODING 63
SWIDTH 694 0
DWIDTH 9 0
BBX 9 13 0 -2
BITMAP
7E00
C300
C300
0300
0600
0C00
1800
1800
0000
0000
1800
0000
0000
ENDCHAR

STARTCHAR at
ENCODING 64
SWIDTH 694 0
DWIDTH 9 0
BBX 9 13 0 -2
BITMAP
0000
0000
0000
7E00
C300
DD00
D300
DB00
CF00
6000
3F00
0000
0000
ENDCHAR

STARTCHAR A
ENCODING 65
SWIDTH 694 0
DWIDTH 9 0
BBX 9 13 0 -2
BITMAP
1800
3C00
6600
C300
C300
C300
FF00
C300
C300
C300
C300
0000
0000
ENDCHAR

STARTCHAR B
ENCODING 66
SWIDTH 694 0
DWIDTH 9 0
BBX 9 13 0 -2
BITMAP
FE00
C700
C300
C300
C700
FE00
C700
C300
C300
C700
FE00
0000
0000
ENDCHAR

STARTCHAR C
ENCODING 67
SWIDTH 694 0
DWIDTH 9 0
BBX 9 13 0 -2
BITMAP
7E00
E700
C000
C000
C000
C000
C000
C000
C000
E700
7E00
0000
0000
ENDCHAR

STARTCHAR D
ENCODING 68
SWIDTH 694 0
DWIDTH 9 0
BBX 9 13 0 -2
BITMAP
FC00
CE00
C700
C300
C300
C300
C300
C300
C700
CE00
FC00
0000
0000
ENDCHAR

STARTCHAR E
ENCODING 69
SWIDTH 694 0
DWIDTH 9 0
BBX 9 13 0 -2
BITMAP
FF00
C000
C000
C000
C000
FC00
C000
C000
C000
C000
FF00
0000
0000
ENDCHAR

STARTCHAR F
ENCODING 70
SWIDTH 694 0
DWIDTH 9 0
BBX 9 13 0 -2
BITMAP
FF00
C000
C000
C000
FC00
C000
C000
C000
C000
C000
C000
0000
0000
ENDCHAR

STARTCHAR G
ENCODING 71
SWIDTH 694 0
DWIDTH 9 0
BBX 9 13 0 -2
BITMAP
7E00
E700
C000
C000
C000
C000
CF00
C300
C300
E700
7E00
0000
0000
ENDCHAR

STARTCHAR H
ENCODING 72
SWIDTH 694 0
DWIDTH 9 0
BBX 9 13 0 -2
BITMAP
C300
C300
C300
C300
C300
FF00
C300
C300
C300
C300
C300
0000
0000
ENDCHAR

STARTCHAR I
ENCODING 73
SWIDTH 694 0
DWIDTH 9 0
BBX 9 13 0 -2
BITMAP
7E00
1800
1800
1800
1800
1800
1800
1800
1800
1800
7E00
0000
0000
ENDCHAR

STARTCHAR J
ENCODING 74
SWIDTH 694 0
DWIDTH 9 0
BBX 9 13 0 -2
BITMAP
0600
0600
0600
0600
0600
0600
0600
0600
C600
EE00
7C00
0000
0000
ENDCHAR

STARTCHAR K
ENCODING 75
SWIDTH 694 0
DWIDTH 9 0
BBX 9 13 0 -2
BITMAP
C300
C600
CC00
D800
F000
E000
F000
D800
CC00
C600
C300
0000
0000
ENDCHAR

STARTCHAR L
ENCODING 76
SWIDTH 694 0
DWIDTH 9 0
BBX 9 13 0 -2
BITMAP
C000
C000
C000
C000
C000
C000
C000
C000
C000
C000
FF00
0000
0000
ENDCHAR

STARTCHAR M
ENCODING 77
SWIDTH 694 0
DWIDTH 9 0
BBX 9 13 0 -2
BITMAP
C300
E700
FF00
FF00
DB00
C300
C300
C300
C300
C300
C300
0000
0000
ENDCHAR

STARTCHAR N
ENCODING 78
SWIDTH 694 0
DWIDTH 9 0
BBX 9 13 0 -2
BITMAP
E300
E300
F300
F300
FB00
DB00
DF00
CF00
CF00
C700
C700
0000
0000
ENDCHAR

STARTCHAR O
ENCODING 79
SWIDTH 694 0
DWIDTH 9 0
BBX 9 13 0 -2
BITMAP
7E00
E700
C300
C300
C300
C300
C300
C300
C300
E700
7E00
0000
0000
ENDCHAR

STARTCHAR P
ENCODING 80
SWIDTH 694 0
DWIDTH 9 0
BBX 9 13 0 -2
BITMAP
FE00
C700
C300
C300
C700
FE00
C000
C000
C000
C000
C000
0000
0000
ENDCHAR

STARTCHAR Q
ENCODING 81
SWIDTH 694 0
DWIDTH 9 0
BBX 9 13 0 -2
BITMAP
3C00
6600
C300
C300
C300
C300
C300
DB00
DF00
6E00
3F00
0000
0000
ENDCHAR

STARTCHAR R
ENCODING 82
SWIDTH 694 0
DWIDTH 9 0
BBX 9 13 0 -2
BITMAP
FE00
C700
C300
C300
C700
FE00
F000
D800
CC00
C600
C300
0000
0000
ENDCHAR

STARTCHAR S
ENCODING 83
SWIDTH 694 0
DWIDTH 9 0
BBX 9 13 0 -2
BITMAP
7E00
E700
C000
C000
E000
7E00
0700
0300
0300
E700
7E00
0000
0000
ENDCHAR

STARTCHAR T
ENCODING 84
SWIDTH 694 0
DWIDTH 9 0
BBX 9 13 0 -2
BITMAP
FF00
1800
1800
1800
1800
1800
1800
1800
1800
1800
1800
0000
0000
ENDCHAR

STARTCHAR U
ENCODING 85
SWIDTH 694 0
DWIDTH 9 0
BBX 9 13 0 -2
BITMAP
C300
C300
C300
C300
C300
C300
C300
C300
C300
E700
7E00
0000
0000
ENDCHAR

STARTCHAR V
ENCODING 86
SWIDTH 694 0
DWIDTH 9 0
BBX 9 13 0 -2
BITMAP
C300
C300
C300
C300
C300
C300
6600
6600
3C00
3C00
1800
0000
0000
ENDCHAR

STARTCHAR W
ENCODING 87
SWIDTH 694 0
DWIDTH 9 0
BBX 9 13 0 -2
BITMAP
C300
C300
C300
C300
C300
DB00
DB00
FF00
FF00
E700
C300
0000
0000
ENDCHAR

STARTCHAR X
ENCODING 88
SWIDTH 694 0
DWIDTH 9 0
BBX 9 13 0 -2
BITMAP
C300
6600
6600
3C00
3C00
1800
3C00
3C00
6600
6600
C300
0000
0000
ENDCHAR

STARTCHAR Y
ENCODING 89
SWIDTH 694 0
DWIDTH 9 0
BBX 9 13 0 -2
BITMAP
C300
6600
6600
3C00
3C00
1800
1800
1800
1800
1800
1800
0000
0000
ENDCHAR

STARTCHAR Z
ENCODING 90
SWIDTH 694 0
DWIDTH 9 0
BBX 9 13 0 -2
BITMAP
FF00
0300
0300
0600
0C00
7E00
3000
6000
C000
C000
FF00
0000
0000
ENDCHAR

STARTCHAR bracketleft
ENCODING 91
SWIDTH 694 0
DWIDTH 9 0
BBX 9 13 0 -2
BITMAP
3C00
3000
3000
3000
3000
3000
3000
3000
3000
3000
3C00
0000
0000
ENDCHAR

STARTCHAR backslash
ENCODING 92
SWIDTH 694 0
DWIDTH 9 0
BBX 9 13 0 -2
BITMAP
6000
6000
3000
3000
1800
1800
0C00
0C00
0600
0600
0300
0300
0000
ENDCHAR

STARTCHAR bracketright
ENCODING 93
SWIDTH 694 0
DWIDTH 9 0
BBX 9 13 0 -2
BITMAP
3C00
0C00
0C00
0C00
0C00
0C00
0C00
0C00
0C00
0C00
3C00
0000
0000
ENDCHAR

STARTCHAR asciicircum
ENCODING 94
SWIDTH 694 0
DWIDTH 9 0
BBX 9 13 0 -2
BITMAP
1800
3C00
6600
C300
0000
0000
0000
0000
0000
0000
0000
0000
0000
ENDCHAR

STARTCHAR underscore
ENCODING 95
SWIDTH 694 0
DWIDTH 9 0
BBX 9 13 0 -2
BITMAP
0000
0000
0000
0000
0000
0000
0000
0000
0000
0000
0000
FF00
FF00
ENDCHAR

STARTCHAR quoteleft
ENCODING 96
SWIDTH 694 0
DWIDTH 9 0
BBX 9 13 0 -2
BITMAP
7000
3000
3800
1800
0000
0000
0000
0000
0000
0000
0000
0000
0000
ENDCHAR

STARTCHAR a
ENCODING 97
SWIDTH 694 0
DWIDTH 9 0
BBX 9 13 0 -2
BITMAP
0000
0000
0000
0000
7E00
C300
0300
7F00
C300
C300
7F00
0000
0000
ENDCHAR

STARTCHAR b
ENCODING 98
SWIDTH 694 0
DWIDTH 9 0
BBX 9 13 0 -2
BITMAP
C000
C000
C000
C000
C000
FE00
C300
C300
C300
C300
FE00
0000
0000
ENDCHAR

STARTCHAR c
ENCODING 99
SWIDTH 694 0
DWIDTH 9 0
BBX 9 13 0 -2
BITMAP
0000
0000
0000
0000
7E00
C300
C000
C000
C000
C300
7E00
0000
0000
ENDCHAR

STARTCHAR d
ENCODING 100
SWIDTH 694 0
DWIDTH 9 0
BBX 9 13 0 -2
BITMAP
0300
0300
0300
0300
0300
7F00
C300
C300
C300
C300
7F00
0000
0000
ENDCHAR

STARTCHAR e
ENCODING 101
SWIDTH 694 0
DWIDTH 9 0
BBX 9 13 0 -2
BITMAP
0000
0000
0000
0000
7E00
C300
C300
FE00
C000
C000
7F00
0000
0000
ENDCHAR

STARTCHAR f
ENCODING 102
SWIDTH 694 0
DWIDTH 9 0
BBX 9 13 0 -2
BITMAP
1E00
3300
3000
3000
3000
FC00
3000
3000
3000
3000
3000
0000
0000
ENDCHAR

STARTCHAR g
ENCODING 103
SWIDTH 694 0
DWIDTH 9 0
BBX 9 13 0 -2
BITMAP
0000
0000
0000
0000
7E00
C300
C300
C300
7F00
0300
0300
C300
7E00
ENDCHAR

STARTCHAR h
ENCODING 104
SWIDTH 694 0
DWIDTH 9 0
BBX 9 13 0 -2
BITMAP
C000
C000
C000
C000
FE00
C300
C300
C300
C300
C300
C300
0000
0000
ENDCHAR

STARTCHAR i
ENCODING 105
SWIDTH 694 0
DWIDTH 9 0
BBX 9 13 0 -2
BITMAP
0000
1800
0000
0000
1800
1800
1800
1800
1800
1800
1800
0000
0000
ENDCHAR

STARTCHAR j
ENCODING 106
SWIDTH 694 0
DWIDTH 9 0
BBX 9 13 0 -2
BITMAP
0000
0C00
0000
0000
0C00
0C00
0C00
0C00
0C00
0C00
0C00
6C00
3800
ENDCHAR

STARTCHAR k
ENCODING 107
SWIDTH 694 0
DWIDTH 9 0
BBX 9 13 0 -2
BITMAP
C000
C000
C000
C000
C600
CC00
D800
F000
F800
CC00
C600
0000
0000
ENDCHAR

STARTCHAR l
ENCODING 108
SWIDTH 694 0
DWIDTH 9 0
BBX 9 13 0 -2
BITMAP
7800
1800
1800
1800
1800
1800
1800
1800
1800
1800
7E00
0000
0000
ENDCHAR

STARTCHAR m
ENCODING 109
SWIDTH 694 0
DWIDTH 9 0
BBX 9 13 0 -2
BITMAP
0000
0000
0000
0000
FE00
DB00
DB00
DB00
DB00
DB00
DB00
0000
0000
ENDCHAR

STARTCHAR n
ENCODING 110
SWIDTH 694 0
DWIDTH 9 0
BBX 9 13 0 -2
BITMAP
0000
0000
0000
0000
FC00
C600
C600
C600
C600
C600
C600
0000
0000
ENDCHAR

STARTCHAR o
ENCODING 111
SWIDTH 694 0
DWIDTH 9 0
BBX 9 13 0 -2
BITMAP
0000
0000
0000
0000
7C00
C600
C600
C600
C600
C600
7C00
0000
0000
ENDCHAR

STARTCHAR p
ENCODING 112
SWIDTH 694 0
DWIDTH 9 0
BBX 9 13 0 -2
BITMAP
0000
0000
0000
0000
FE00
C300
C300
C300
C300
FE00
C000
C000
C000
ENDCHAR

STARTCHAR q
ENCODING 113
SWIDTH 694 0
DWIDTH 9 0
BBX 9 13 0 -2
BITMAP
0000
0000
0000
0000
7F00
C300
C300
C300
C300
7F00
0300
0300
0300
ENDCHAR

STARTCHAR r
ENCODING 114
SWIDTH 694 0
DWIDTH 9 0
BBX 9 13 0 -2
BITMAP
0000
0000
0000
0000
FE00
E000
C000
C000
C000
C000
C000
0000
0000
ENDCHAR

STARTCHAR s
ENCODING 115
SWIDTH 694 0
DWIDTH 9 0
BBX 9 13 0 -2
BITMAP
0000
0000
0000
0000
7F00
C000
C000
7E00
0300
0300
FE00
0000
0000
ENDCHAR

STARTCHAR t
ENCODING 116
SWIDTH 694 0
DWIDTH 9 0
BBX 9 13 0 -2
BITMAP
0000
3000
3000
3000
FC00
3000
3000
3000
3000
3600
1C00
0000
0000
ENDCHAR

STARTCHAR u
ENCODING 117
SWIDTH 694 0
DWIDTH 9 0
BBX 9 13 0 -2
BITMAP
0000
0000
0000
0000
C600
C600
C600
C600
C600
C600
7E00
0000
0000
ENDCHAR

STARTCHAR v
ENCODING 118
SWIDTH 694 0
DWIDTH 9 0
BBX 9 13 0 -2
BITMAP
0000
0000
0000
0000
C300
C300
6600
6600
3C00
3C00
1800
0000
0000
ENDCHAR

STARTCHAR w
ENCODING 119
SWIDTH 694 0
DWIDTH 9 0
BBX 9 13 0 -2
BITMAP
0000
0000
0000
0000
C300
C300
C300
DB00
FF00
E700
C300
0000
0000
ENDCHAR

STARTCHAR x
ENCODING 120
SWIDTH 694 0
DWIDTH 9 0
BBX 9 13 0 -2
BITMAP
0000
0000
0000
0000
C300
6600
3C00
1800
3C00
6600
C300
0000
0000
ENDCHAR

STARTCHAR y
ENCODING 121
SWIDTH 694 0
DWIDTH 9 0
BBX 9 13 0 -2
BITMAP
0000
0000
0000
0000
C300
6600
6600
3C00
1800
3000
6000
6000
C000
ENDCHAR

STARTCHAR z
ENCODING 122
SWIDTH 694 0
DWIDTH 9 0
BBX 9 13 0 -2
BITMAP
0000
0000
0000
0000
FF00
0600
0C00
1800
3000
6000
FF00
0000
0000
ENDCHAR

STARTCHAR braceleft
ENCODING 123
SWIDTH 694 0
DWIDTH 9 0
BBX 9 13 0 -2
BITMAP
0F00
1800
1800
1800
3800
F000
3800
1800
1800
1800
0F00
0000
0000
ENDCHAR

STARTCHAR bar
ENCODING 124
SWIDTH 694 0
DWIDTH 9 0
BBX 9 13 0 -2
BITMAP
1800
1800
1800
1800
1800
1800
1800
1800
1800
1800
1800
1800
1800
ENDCHAR

STARTCHAR braceright
ENCODING 125
SWIDTH 694 0
DWIDTH 9 0
BBX 9 13 0 -2
BITMAP
F000
1800
1800
1800
1C00
0F00
1C00
1800
1800
1800
F000
0000
0000
ENDCHAR

STARTCHAR asciitilde
ENCODING 126
SWIDTH 694 0
DWIDTH 9 0
BBX 9 13 0 -2
BITMAP
0000
0000
0000
6000
F100
8F00
0600
0000
0000
0000
0000
0000
0000
ENDCHAR

STARTCHAR exclamdown
ENCODING 161
SWIDTH 694 0
DWIDTH 9 0
BBX 9 13 0 -2
BITMAP
0000
0000
1800
1800
0000
0000
1800
1800
1800
1800
1800
1800
1800
ENDCHAR

STARTCHAR cent
ENCODING 162
SWIDTH 694 0
DWIDTH 9 0
BBX 9 13 0 -2
BITMAP
0000
0000
0800
0800
7E00
C300
C000
C000
C000
C300
7E00
0800
0800
ENDCHAR

STARTCHAR sterling
ENCODING 163
SWIDTH 694 0
DWIDTH 9 0
BBX 9 13 0 -2
BITMAP
0000
3800
6C00
6000
6000
6000
F000
6000
6000
C600
FC00
0000
0000
ENDCHAR

STARTCHAR currency
ENCODING 164
SWIDTH 694 0
DWIDTH 9 0
BBX 9 13 0 -2
BITMAP
0000
0000
0000
0000
6600
7E00
2400
2400
7E00
6600
0000
0000
0000
ENDCHAR

STARTCHAR yen
ENCODING 165
SWIDTH 694 0
DWIDTH 9 0
BBX 9 13 0 -2
BITMAP
0000
4200
4200
6600
3C00
1800
7E00
1800
7E00
1800
3C00
0000
0000
ENDCHAR

STARTCHAR brokenbar
ENCODING 166
SWIDTH 694 0
DWIDTH 9 0
BBX 9 13 0 -2
BITMAP
1800
1800
1800
1800
1800
1800
0000
1800
1800
1800
1800
1800
1800
ENDCHAR

STARTCHAR section
ENCODING 167
SWIDTH 694 0
DWIDTH 9 0
BBX 9 13 0 -2
BITMAP
0000
7C00
C600
6000
F800
8C00
C600
6200
3E00
0C00
C600
7C00
0000
ENDCHAR

STARTCHAR dieresis
ENCODING 168
SWIDTH 694 0
DWIDTH 9 0
BBX 9 13 0 -2
BITMAP
0000
6C00
6C00
0000
0000
0000
0000
0000
0000
0000
0000
0000
0000
ENDCHAR

STARTCHAR copyright
ENCODING 169
SWIDTH 694 0
DWIDTH 9 0
BBX 9 13 0 -2
BITMAP
0000
0000
0000
0000
7C00
C600
F600
E600
F600
C600
7C00
0000
0000
ENDCHAR

STARTCHAR ordfeminine
ENCODING 170
SWIDTH 694 0
DWIDTH 9 0
BBX 9 13 0 -2
BITMAP
0000
3800
0C00
3C00
6C00
3C00
0000
7C00
0000
0000
0000
0000
0000
ENDCHAR

STARTCHAR guillemotleft
ENCODING 171
SWIDTH 694 0
DWIDTH 9 0
BBX 9 13 0 -2
BITMAP
0000
0000
0000
0000
3600
6C00
D800
D800
6C00
3600
0000
0000
0000
ENDCHAR

STARTCHAR logicalnot
ENCODING 172
SWIDTH 694 0
DWIDTH 9 0
BBX 9 13 0 -2
BITMAP
0000
0000
0000
0000
0000
7E00
7E00
0600
0000
0000
0000
0000
0000
ENDCHAR

STARTCHAR hyphen
ENCODING 173
SWIDTH 694 0
DWIDTH 9 0
BBX 9 13 0 -2
BITMAP
0000
0000
0000
0000
0000
0000
3C00
3C00
0000
0000
0000
0000
0000
ENDCHAR

STARTCHAR registered
ENCODING 174
SWIDTH 694 0
DWIDTH 9 0
BBX 9 13 0 -2
BITMAP
0000
0000
0000
0000
7C00
C600
F600
F600
EE00
C600
7C00
0000
0000
ENDCHAR

STARTCHAR macron
ENCODING 175
SWIDTH 694 0
DWIDTH 9 0
BBX 9 13 0 -2
BITMAP
0000
3C00
3C00
0000
0000
0000
0000
0000
0000
0000
0000
0000
0000
ENDCHAR

STARTCHAR degree
ENCODING 176
SWIDTH 694 0
DWIDTH 9 0
BBX 9 13 0 -2
BITMAP
0000
0000
0000
0000
0000
3800
2800
3800
0000
0000
0000
0000
0000
ENDCHAR

STARTCHAR plusminus
ENCODING 177
SWIDTH 694 0
DWIDTH 9 0
BBX 9 13 0 -2
BITMAP
0000
0000
0000
1800
1800
7E00
1800
1800
0000
7E00
0000
0000
0000
ENDCHAR

STARTCHAR twosuperior
ENCODING 178
SWIDTH 694 0
DWIDTH 9 0
BBX 9 13 0 -2
BITMAP
0000
3800
0C00
1800
3000
3C00
0000
0000
0000
0000
0000
0000
0000
ENDCHAR

STARTCHAR threesuperior
ENCODING 179
SWIDTH 694 0
DWIDTH 9 0
BBX 9 13 0 -2
BITMAP
0000
3C00
0C00
1800
0C00
3C00
0000
0000
0000
0000
0000
0000
0000
ENDCHAR

STARTCHAR acute
ENCODING 180
SWIDTH 694 0
DWIDTH 9 0
BBX 9 13 0 -2
BITMAP
0000
1800
3000
0000
0000
0000
0000
0000
0000
0000
0000
0000
0000
ENDCHAR

STARTCHAR mu
ENCODING 181
SWIDTH 694 0
DWIDTH 9 0
BBX 9 13 0 -2
BITMAP
0000
0000
0000
0000
C600
C600
C600
C600
C600
C600
FE00
C000
C000
ENDCHAR

STARTCHAR paragraph
ENCODING 182
SWIDTH 694 0
DWIDTH 9 0
BBX 9 13 0 -2
BITMAP
0000
7E00
F600
B600
B600
F600
7600
3600
3600
3600
3600
0000
0000
ENDCHAR

STARTCHAR periodcentered
ENCODING 183
SWIDTH 694 0
DWIDTH 9 0
BBX 9 13 0 -2
BITMAP
0000
0000
0000
0000
0000
0000
1800
1800
0000
0000
0000
0000
0000
ENDCHAR

STARTCHAR cedilla
ENCODING 184
SWIDTH 694 0
DWIDTH 9 0
BBX 9 13 0 -2
BITMAP
0000
0000
0000
0000
0000
0000
0000
0000
0000
0000
0000
0800
3800
ENDCHAR

STARTCHAR onesuperior
ENCODING 185
SWIDTH 694 0
DWIDTH 9 0
BBX 9 13 0 -2
BITMAP
0000
1800
3800
1800
1800
3C00
0000
0000
0000
0000
0000
0000
0000
ENDCHAR

STARTCHAR ordmasculine
ENCODING 186
SWIDTH 694 0
DWIDTH 9 0
BBX 9 13 0 -2
BITMAP
0000
3800
6C00
6C00
3800
0000
7C00
0000
0000
0000
0000
0000
0000
ENDCHAR

STARTCHAR guillemotright
ENCODING 187
SWIDTH 694 0
DWIDTH 9 0
BBX 9 13 0 -2
BITMAP
0000
0000
0000
0000
D800
6C00
3600
3600
6C00
D800
0000
0000
0000
ENDCHAR

STARTCHAR onequarter
ENCODING 188
SWIDTH 694 0
DWIDTH 9 0
BBX 9 13 0 -2
BITMAP
3000
7000
3000
3200
7C00
0800
1600
2E00
4A00
1F00
0600
0000
0000
ENDCHAR

STARTCHAR onehalf
ENCODING 189
SWIDTH 694 0
DWIDTH 9 0
BBX 9 13 0 -2
BITMAP
3000
7000
3000
3200
7C00
0800
1000
3C00
4600
0C00
1800
1E00
0000
ENDCHAR

STARTCHAR threequarters
ENCODING 190
SWIDTH 694 0
DWIDTH 9 0
BBX 9 13 0 -2
BITMAP
7800
1800
3000
1A00
7C00
0800
1600
2E00
4A00
1F00
0600
0000
0000
ENDCHAR

STARTCHAR questiondown
ENCODING 191
SWIDTH 694 0
DWIDTH 9 0
BBX 9 13 0 -2
BITMAP
0000
0000
1800
0000
0000
1800
1800
3000
6000
C000
C300
C300
7E00
ENDCHAR

STARTCHAR Agrave
ENCODING 192
SWIDTH 694 0
DWIDTH 9 0
BBX 9 13 0 -2
BITMAP
3000
1800
0000
1800
3C00
6600
C300
C300
FF00
C300
C300
0000
0000
ENDCHAR

STARTCHAR Aacute
ENCODING 193
SWIDTH 694 0
DWIDTH 9 0
BBX 9 13 0 -2
BITMAP
0C00
1800
0000
1800
3C00
6600
C300
C300
FF00
C300
C300
0000
0000
ENDCHAR

STARTCHAR Acircumflex
ENCODING 194
SWIDTH 694 0
DWIDTH 9 0
BBX 9 13 0 -2
BITMAP
3C00
6600
0000
1800
3C00
6600
C300
C300
FF00
C300
C300
0000
0000
ENDCHAR

STARTCHAR Atilde
ENCODING 195
SWIDTH 694 0
DWIDTH 9 0
BBX 9 13 0 -2
BITMAP
7A00
4E00
0000
1800
3C00
6600
C300
C300
FF00
C300
C300
0000
0000
ENDCHAR

STARTCHAR Adieresis
ENCODING 196
SWIDTH 694 0
DWIDTH 9 0
BBX 9 13 0 -2
BITMAP
3600
3600
0000
1800
3C00
6600
C300
C300
FF00
C300
C300
0000
0000
ENDCHAR

STARTCHAR Aring
ENCODING 197
SWIDTH 694 0
DWIDTH 9 0
BBX 9 13 0 -2
BITMAP
1800
2400
1800
1800
3C00
6600
C300
C300
FF00
C300
C300
0000
0000
ENDCHAR

STARTCHAR AE
ENCODING 198
SWIDTH 694 0
DWIDTH 9 0
BBX 9 13 0 -2
BITMAP
0000
0000
3E00
7800
5800
D800
DE00
F800
D800
D800
DE00
0000
0000
ENDCHAR

STARTCHAR Ccedilla
ENCODING 199
SWIDTH 694 0
DWIDTH 9 0
BBX 9 13 0 -2
BITMAP
0000
0000
7E00
E700
C000
C000
C000
C000
C000
E700
7E00
0800
3800
ENDCHAR

STARTCHAR Egrave
ENCODING 200
SWIDTH 694 0
DWIDTH 9 0
BBX 9 13 0 -2
BITMAP
3000
1800
0000
FF00
C000
C000
C000
FC00
C000
C000
FF00
0000
0000
ENDCHAR

STARTCHAR Eacute
ENCODING 201
SWIDTH 694 0
DWIDTH 9 0
BBX 9 13 0 -2
BITMAP
0C00
1800
0000
FF00
C000
C000
C000
FC00
C000
C000
FF00
0000
0000
ENDCHAR

STARTCHAR Ecircumflex
ENCODING 202
SWIDTH 694 0
DWIDTH 9 0
BBX 9 13 0 -2
BITMAP
3C00
6600
0000
FF00
C000
C000
C000
FC00
C000
C000
FF00
0000
0000
ENDCHAR

STARTCHAR Edieresis
ENCODING 203
SWIDTH 694 0
DWIDTH 9 0
BBX 9 13 0 -2
BITMAP
3600
3600
0000
FF00
C000
C000
C000
FC00
C000
C000
FF00
0000
0000
ENDCHAR

STARTCHAR Igrave
ENCODING 204
SWIDTH 694 0
DWIDTH 9 0
BBX 9 13 0 -2
BITMAP
3000
1800
0000
7E00
1800
1800
1800
1800
1800
1800
7E00
0000
0000
ENDCHAR

STARTCHAR Iacute
ENCODING 205
SWIDTH 694 0
DWIDTH 9 0
BBX 9 13 0 -2
BITMAP
0C00
1800
0000
7E00
1800
1800
1800
1800
1800
1800
7E00
0000
0000
ENDCHAR

STARTCHAR Icircumflex
ENCODING 206
SWIDTH 694 0
DWIDTH 9 0
BBX 9 13 0 -2
BITMAP
3C00
6600
0000
7E00
1800
1800
1800
1800
1800
1800
7E00
0000
0000
ENDCHAR

STARTCHAR Idieresis
ENCODING 207
SWIDTH 694 0
DWIDTH 9 0
BBX 9 13 0 -2
BITMAP
3600
3600
0000
7E00
1800
1800
1800
1800
1800
1800
7E00
0000
0000
ENDCHAR

STARTCHAR Eth
ENCODING 208
SWIDTH 694 0
DWIDTH 9 0
BBX 9 13 0 -2
BITMAP
0000
0000
0000
7C00
6600
6300
F300
F300
6300
6600
7C00
0000
0000
ENDCHAR

STARTCHAR Ntilde
ENCODING 209
SWIDTH 694 0
DWIDTH 9 0
BBX 9 13 0 -2
BITMAP
7A00
4E00
0000
C300
E300
F300
FB00
DF00
CF00
C700
C300
0000
0000
ENDCHAR

STARTCHAR Ograve
ENCODING 210
SWIDTH 694 0
DWIDTH 9 0
BBX 9 13 0 -2
BITMAP
3000
1800
0000
7E00
E700
C300
C300
C300
C300
E700
7E00
0000
0000
ENDCHAR

STARTCHAR Oacute
ENCODING 211
SWIDTH 694 0
DWIDTH 9 0
BBX 9 13 0 -2
BITMAP
0C00
1800
0000
7E00
E700
C300
C300
C300
C300
E700
7E00
0000
0000
ENDCHAR

STARTCHAR Ocircumflex
ENCODING 212
SWIDTH 694 0
DWIDTH 9 0
BBX 9 13 0 -2
BITMAP
3C00
6600
0000
7E00
E700
C300
C300
C300
C300
E700
7E00
0000
0000
ENDCHAR

STARTCHAR Otilde
ENCODING 213
SWIDTH 694 0
DWIDTH 9 0
BBX 9 13 0 -2
BITMAP
7A00
4E00
0000
7E00
E700
C300
C300
C300
C300
E700
7E00
0000
0000
ENDCHAR

STARTCHAR Odieresis
ENCODING 214
SWIDTH 694 0
DWIDTH 9 0
BBX 9 13 0 -2
BITMAP
3600
3600
0000
7E00
E700
C300
C300
C300
C300
E700
7E00
0000
0000
ENDCHAR

STARTCHAR multiply
ENCODING 215
SWIDTH 694 0
DWIDTH 9 0
BBX 9 13 0 -2
BITMAP
0000
0000
0000
0000
4200
6600
3C00
1800
3C00
6600
4200
0000
0000
ENDCHAR

STARTCHAR Oslash
ENCODING 216
SWIDTH 694 0
DWIDTH 9 0
BBX 9 13 0 -2
BITMAP
0000
0000
0100
7E00
E700
CF00
CB00
DB00
F300
E700
7E00
0000
0000
ENDCHAR

STARTCHAR Ugrave
ENCODING 217
SWIDTH 694 0
DWIDTH 9 0
BBX 9 13 0 -2
BITMAP
3000
1800
0000
C300
C300
C300
C300
C300
C300
E700
7E00
0000
0000
ENDCHAR

STARTCHAR Uacute
ENCODING 218
SWIDTH 694 0
DWIDTH 9 0
BBX 9 13 0 -2
BITMAP
0C00
1800
0000
C300
C300
C300
C300
C300
C300
E700
7E00
0000
0000
ENDCHAR

STARTCHAR Ucircumflex
ENCODING 219
SWIDTH 694 0
DWIDTH 9 0
BBX 9 13 0 -2
BITMAP
1800
2400
0000
C300
C300
C300
C300
C300
C300
E700
7E00
0000
0000
ENDCHAR

STARTCHAR Udieresis
ENCODING 220
SWIDTH 694 0
DWIDTH 9 0
BBX 9 13 0 -2
BITMAP
3600
3600
0000
C300
C300
C300
C300
C300
C300
E700
7E00
0000
0000
ENDCHAR

STARTCHAR Yacute
ENCODING 221
SWIDTH 694 0
DWIDTH 9 0
BBX 9 13 0 -2
BITMAP
0C00
1800
0000
C300
6600
6600
3C00
3C00
1800
1800
1800
0000
0000
ENDCHAR

STARTCHAR Thorn
ENCODING 222
SWIDTH 694 0
DWIDTH 9 0
BBX 9 13 0 -2
BITMAP
0000
0000
F000
6000
7C00
6600
6600
6600
7C00
6000
F000
0000
0000
ENDCHAR

STARTCHAR germandbls
ENCODING 223
SWIDTH 694 0
DWIDTH 9 0
BBX 9 13 0 -2
BITMAP
0000
7800
CC00
CC00
F000
DC00
C600
C600
C600
E600
DC00
0000
0000
ENDCHAR

STARTCHAR agrave
ENCODING 224
SWIDTH 694 0
DWIDTH 9 0
BBX 9 13 0 -2
BITMAP
0000
3000
1800
0000
7E00
C300
0300
7F00
C300
C300
7F00
0000
0000
ENDCHAR

STARTCHAR aacute
ENCODING 225
SWIDTH 694 0
DWIDTH 9 0
BBX 9 13 0 -2
BITMAP
0000
0C00
1800
0000
7E00
C300
0300
7F00
C300
C300
7F00
0000
0000
ENDCHAR

STARTCHAR acircumflex
ENCODING 226
SWIDTH 694 0
DWIDTH 9 0
BBX 9 13 0 -2
BITMAP
0000
3C00
6600
0000
7E00
C300
0300
7F00
C300
C300
7F00
0000
0000
ENDCHAR

STARTCHAR atilde
ENCODING 227
SWIDTH 694 0
DWIDTH 9 0
BBX 9 13 0 -2
BITMAP
0000
7A00
4E00
0000
7E00
C300
0300
7F00
C300
C300
7F00
0000
0000
ENDCHAR

STARTCHAR adieresis
ENCODING 228
SWIDTH 694 0
DWIDTH 9 0
BBX 9 13 0 -2
BITMAP
0000
3600
3600
0000
7E00
C300
0300
7F00
C300
C300
7F00
0000
0000
ENDCHAR

STARTCHAR aring
ENCODING 229
SWIDTH 694 0
DWIDTH 9 0
BBX 9 13 0 -2
BITMAP
1800
2400
1800
0000
7E00
C300
0300
7F00
C300
C300
7F00
0000
0000
ENDCHAR

STARTCHAR ae
ENCODING 230
SWIDTH 694 0
DWIDTH 9 0
BBX 9 13 0 -2
BITMAP
0000
0000
0000
0000
7E00
DB00
1B00
7E00
D800
DB00
6E00
0000
0000
ENDCHAR

STARTCHAR ccedilla
ENCODING 231
SWIDTH 694 0
DWIDTH 9 0
BBX 9 13 0 -2
BITMAP
0000
0000
0000
0000
7E00
C300
C000
C000
C000
C300
7E00
0800
3800
ENDCHAR

STARTCHAR egrave
ENCODING 232
SWIDTH 694 0
DWIDTH 9 0
BBX 9 13 0 -2
BITMAP
0000
3000
1800
0000
7E00
C300
C300
FE00
C000
C000
7F00
0000
0000
ENDCHAR

STARTCHAR eacute
ENCODING 233
SWIDTH 694 0
DWIDTH 9 0
BBX 9 13 0 -2
BITMAP
0000
0C00
1800
0000
7E00
C300
C300
FE00
C000
C000
7F00
0000
0000
ENDCHAR

STARTCHAR ecircumflex
ENCODING 234
SWIDTH 694 0
DWIDTH 9 0
BBX 9 13 0 -2
BITMAP
0000
3C00
6600
0000
7E00
C300
C300
FE00
C000
C000
7F00
0000
0000
ENDCHAR

STARTCHAR edieresis
ENCODING 235
SWIDTH 694 0
DWIDTH 9 0
BBX 9 13 0 -2
BITMAP
0000
3600
3600
0000
7E00
C300
C300
FE00
C000
C000
7F00
0000
0000
ENDCHAR

STARTCHAR igrave
ENCODING 236
SWIDTH 694 0
DWIDTH 9 0
BBX 9 13 0 -2
BITMAP
0000
3000
1800
0000
1800
1800
1800
1800
1800
1800
1800
0000
0000
ENDCHAR

STARTCHAR iacute
ENCODING 237
SWIDTH 694 0
DWIDTH 9 0
BBX 9 13 0 -2
BITMAP
0000
0C00
1800
0000
1800
1800
1800
1800
1800
1800
1800
0000
0000
ENDCHAR

STARTCHAR icircumflex
ENCODING 238
SWIDTH 694 0
DWIDTH 9 0
BBX 9 13 0 -2
BITMAP
0000
3C00
6600
0000
1800
1800
1800
1800
1800
1800
1800
0000
0000
ENDCHAR

STARTCHAR idieresis
ENCODING 239
SWIDTH 694 0
DWIDTH 9 0
BBX 9 13 0 -2
BITMAP
0000
3600
3600
0000
1800
1800
1800
1800
1800
1800
1800
0000
0000
ENDCHAR

STARTCHAR eth
ENCODING 240
SWIDTH 694 0
DWIDTH 9 0
BBX 9 13 0 -2
BITMAP
0000
DC00
7000
9C00
7E00
C600
C600
C600
C600
C600
7C00
0000
0000
ENDCHAR

STARTCHAR ntilde
ENCODING 241
SWIDTH 694 0
DWIDTH 9 0
BBX 9 13 0 -2
BITMAP
0000
F400
9C00
0000
FC00
C600
C600
C600
C600
C600
C600
0000
0000
ENDCHAR

STARTCHAR ograve
ENCODING 242
SWIDTH 694 0
DWIDTH 9 0
BBX 9 13 0 -2
BITMAP
0000
3000
1800
0000
7C00
C600
C600
C600
C600
C600
7C00
0000
0000
ENDCHAR

STARTCHAR oacute
ENCODING 243
SWIDTH 694 0
DWIDTH 9 0
BBX 9 13 0 -2
BITMAP
0000
0C00
1800
0000
7C00
C600
C600
C600
C600
C600
7C00
0000
0000
ENDCHAR

STARTCHAR ocircumflex
ENCODING 244
SWIDTH 694 0
DWIDTH 9 0
BBX 9 13 0 -2
BITMAP
0000
3C00
6600
0000
7C00
C600
C600
C600
C600
C600
7C00
0000
0000
ENDCHAR

STARTCHAR otilde
ENCODING 245
SWIDTH 694 0
DWIDTH 9 0
BBX 9 13 0 -2
BITMAP
0000
7A00
4E00
0000
7C00
C600
C600
C600
C600
C600
7C00
0000
0000
ENDCHAR

STARTCHAR odieresis
ENCODING 246
SWIDTH 694 0
DWIDTH 9 0
BBX 9 13 0 -2
BITMAP
0000
6C00
6C00
0000
7C00
C600
C600
C600
C600
C600
7C00
0000
0000
ENDCHAR

STARTCHAR divide
ENCODING 247
SWIDTH 694 0
DWIDTH 9 0
BBX 9 13 0 -2
BITMAP
0000
0000
0000
1800
1800
0000
FF00
FF00
0000
1800
1800
0000
0000
ENDCHAR

STARTCHAR oslash
ENCODING 248
SWIDTH 694 0
DWIDTH 9 0
BBX 9 13 0 -2
BITMAP
0000
0000
0000
0200
7C00
CE00
DE00
D600
F600
E600
7C00
0000
0000
ENDCHAR

STARTCHAR ugrave
ENCODING 249
SWIDTH 694 0
DWIDTH 9 0
BBX 9 13 0 -2
BITMAP
0000
3000
1800
0000
C600
C600
C600
C600
C600
C600
7E00
0000
0000
ENDCHAR

STARTCHAR uacute
ENCODING 250
SWIDTH 694 0
DWIDTH 9 0
BBX 9 13 0 -2
BITMAP
0000
0C00
1800
0000
C600
C600
C600
C600
C600
C600
7E00
0000
0000
ENDCHAR

STARTCHAR ucircumflex
ENCODING 251
SWIDTH 694 0
DWIDTH 9 0
BBX 9 13 0 -2
BITMAP
0000
3C00
6600
0000
C600
C600
C600
C600
C600
C600
7E00
0000
0000
ENDCHAR

STARTCHAR udieresis
ENCODING 252
SWIDTH 694 0
DWIDTH 9 0
BBX 9 13 0 -2
BITMAP
0000
6C00
6C00
0000
C600
C600
C600
C600
C600
C600
7E00
0000
0000
ENDCHAR

STARTCHAR yacute
ENCODING 253
SWIDTH 694 0
DWIDTH 9 0
BBX 9 13 0 -2
BITMAP
0000
0C00
1800
0000
C300
6600
6600
3C00
1800
3000
6000
6000
C000
ENDCHAR

STARTCHAR thorn
ENCODING 254
SWIDTH 694 0
DWIDTH 9 0
BBX 9 13 0 -2
BITMAP
0000
0000
E000
7C00
6600
6600
6600
6600
6600
7C00
6000
F000
0000
ENDCHAR

STARTCHAR ydieresis
ENCODING 255
SWIDTH 694 0
DWIDTH 9 0
BBX 9 13 0 -2
BITMAP
0000
6C00
6C00
0000
C300
6600
6600
3C00
1800
3000
6000
6000
C000
ENDCHAR
ENDFONT
